<svg width="318" height="318" viewBox="0 0 318 318" fill="none" xmlns="http://www.w3.org/2000/svg">
<rect width="318" height="318" rx="44" fill="#1E326A"/>
<path d="M112.829 204.896C107.229 204.896 102.301 203.813 98.0453 201.648C93.7893 199.408 90.504 196.272 88.1893 192.24C85.8746 188.208 84.7173 183.579 84.7173 178.352V151.248C84.7173 145.947 85.8746 141.317 88.1893 137.36C90.504 133.328 93.7893 130.229 98.0453 128.064C102.301 125.824 107.229 124.704 112.829 124.704C118.355 124.704 123.208 125.787 127.389 127.952C131.645 130.117 134.931 133.067 137.245 136.8C139.56 140.533 140.717 144.752 140.717 149.456V150.352C140.717 150.725 140.568 151.061 140.269 151.36C140.045 151.584 139.747 151.696 139.373 151.696H129.181C128.808 151.696 128.472 151.584 128.173 151.36C127.949 151.061 127.837 150.725 127.837 150.352V149.792C127.837 145.76 126.456 142.437 123.693 139.824C121.005 137.211 117.384 135.904 112.829 135.904C108.275 135.904 104.616 137.285 101.853 140.048C99.0906 142.736 97.7093 146.32 97.7093 150.8V178.8C97.7093 183.28 99.1653 186.901 102.077 189.664C104.989 192.352 108.76 193.696 113.389 193.696C117.869 193.696 121.379 192.539 123.917 190.224C126.531 187.835 127.837 184.587 127.837 180.48V173.536C127.837 173.163 127.651 172.976 127.277 172.976H113.501C113.128 172.976 112.792 172.864 112.493 172.64C112.269 172.341 112.157 172.005 112.157 171.632V163.344C112.157 162.971 112.269 162.672 112.493 162.448C112.792 162.149 113.128 162 113.501 162H139.373C139.747 162 140.045 162.149 140.269 162.448C140.568 162.672 140.717 162.971 140.717 163.344V177.68C140.717 186.267 138.179 192.949 133.101 197.728C128.099 202.507 121.341 204.896 112.829 204.896ZM156.653 204C156.279 204 155.943 203.888 155.645 203.664C155.421 203.365 155.309 203.029 155.309 202.656V126.944C155.309 126.571 155.421 126.272 155.645 126.048C155.943 125.749 156.279 125.6 156.653 125.6H166.957C167.33 125.6 167.629 125.749 167.853 126.048C168.151 126.272 168.301 126.571 168.301 126.944V202.656C168.301 203.029 168.151 203.365 167.853 203.664C167.629 203.888 167.33 204 166.957 204H156.653ZM237.597 135.456C237.597 135.829 237.448 136.165 237.149 136.464C236.925 136.688 236.627 136.8 236.253 136.8H198.173C197.8 136.8 197.613 136.987 197.613 137.36V158.304C197.613 158.677 197.8 158.864 198.173 158.864H223.821C224.195 158.864 224.493 159.013 224.717 159.312C225.016 159.536 225.165 159.835 225.165 160.208V168.72C225.165 169.093 225.016 169.429 224.717 169.728C224.493 169.952 224.195 170.064 223.821 170.064H198.173C197.8 170.064 197.613 170.251 197.613 170.624V202.656C197.613 203.029 197.464 203.365 197.165 203.664C196.941 203.888 196.643 204 196.269 204H185.965C185.592 204 185.256 203.888 184.957 203.664C184.733 203.365 184.621 203.029 184.621 202.656V126.944C184.621 126.571 184.733 126.272 184.957 126.048C185.256 125.749 185.592 125.6 185.965 125.6H236.253C236.627 125.6 236.925 125.749 237.149 126.048C237.448 126.272 237.597 126.571 237.597 126.944V135.456Z" fill="white"/>
</svg>
