<svg width="318" height="318" viewBox="0 0 318 318" fill="none" xmlns="http://www.w3.org/2000/svg">
<rect width="318" height="318" rx="44" fill="#1E326A"/>
<path d="M80.4731 184C80.2665 184 80.0805 183.938 79.9151 183.814C79.7911 183.649 79.7291 183.463 79.7291 183.256V141.344C79.7291 141.137 79.7911 140.972 79.9151 140.848C80.0805 140.683 80.2665 140.6 80.4731 140.6H86.1771C86.3838 140.6 86.5491 140.683 86.6731 140.848C86.8385 140.972 86.9211 141.137 86.9211 141.344V183.256C86.9211 183.463 86.8385 183.649 86.6731 183.814C86.5491 183.938 86.3838 184 86.1771 184H80.4731ZM129.188 151.822C132.37 151.822 134.85 152.793 136.628 154.736C138.446 156.637 139.356 159.303 139.356 162.734V183.256C139.356 183.463 139.273 183.649 139.108 183.814C138.984 183.938 138.818 184 138.612 184H132.97C132.763 184 132.577 183.938 132.412 183.814C132.288 183.649 132.226 183.463 132.226 183.256V164.222C132.226 162.321 131.709 160.812 130.676 159.696C129.684 158.58 128.34 158.022 126.646 158.022C124.951 158.022 123.566 158.58 122.492 159.696C121.417 160.812 120.88 162.3 120.88 164.16V183.256C120.88 183.463 120.797 183.649 120.632 183.814C120.508 183.938 120.342 184 120.136 184H114.494C114.287 184 114.101 183.938 113.936 183.814C113.812 183.649 113.75 183.463 113.75 183.256V164.222C113.75 162.321 113.233 160.812 112.2 159.696C111.166 158.58 109.802 158.022 108.108 158.022C106.537 158.022 105.235 158.477 104.202 159.386C103.21 160.295 102.631 161.535 102.466 163.106V183.256C102.466 183.463 102.383 183.649 102.218 183.814C102.094 183.938 101.928 184 101.722 184H96.0177C95.811 184 95.625 183.938 95.4597 183.814C95.3357 183.649 95.2737 183.463 95.2737 183.256V153.062C95.2737 152.855 95.3357 152.69 95.4597 152.566C95.625 152.401 95.811 152.318 96.0177 152.318H101.722C101.928 152.318 102.094 152.401 102.218 152.566C102.383 152.69 102.466 152.855 102.466 153.062V155.108C102.466 155.232 102.507 155.315 102.59 155.356C102.672 155.397 102.755 155.356 102.838 155.232C103.747 154.075 104.863 153.227 106.186 152.69C107.55 152.111 109.058 151.822 110.712 151.822C112.737 151.822 114.514 152.235 116.044 153.062C117.573 153.889 118.751 155.087 119.578 156.658C119.702 156.823 119.846 156.823 120.012 156.658C120.921 155.005 122.182 153.785 123.794 153C125.406 152.215 127.204 151.822 129.188 151.822ZM158.768 151.822C161.372 151.822 163.666 152.277 165.65 153.186C167.634 154.095 169.163 155.356 170.238 156.968C171.313 158.539 171.85 160.337 171.85 162.362V183.256C171.85 183.463 171.767 183.649 171.602 183.814C171.478 183.938 171.313 184 171.106 184H165.402C165.195 184 165.009 183.938 164.844 183.814C164.72 183.649 164.658 183.463 164.658 183.256V181.272C164.658 181.148 164.617 181.086 164.534 181.086C164.451 181.045 164.369 181.065 164.286 181.148C162.261 183.38 159.326 184.496 155.482 184.496C152.382 184.496 149.819 183.711 147.794 182.14C145.81 180.569 144.818 178.234 144.818 175.134C144.818 171.91 145.934 169.409 148.166 167.632C150.439 165.813 153.622 164.904 157.714 164.904H164.348C164.555 164.904 164.658 164.801 164.658 164.594V163.106C164.658 161.494 164.183 160.254 163.232 159.386C162.281 158.477 160.855 158.022 158.954 158.022C157.383 158.022 156.102 158.311 155.11 158.89C154.159 159.427 153.56 160.192 153.312 161.184C153.188 161.68 152.899 161.887 152.444 161.804L146.43 161.06C146.223 161.019 146.037 160.957 145.872 160.874C145.748 160.75 145.707 160.605 145.748 160.44C146.079 157.919 147.422 155.852 149.778 154.24C152.175 152.628 155.172 151.822 158.768 151.822ZM157.28 178.792C159.305 178.792 161.041 178.255 162.488 177.18C163.935 176.105 164.658 174.741 164.658 173.088V170.174C164.658 169.967 164.555 169.864 164.348 169.864H159.14C156.949 169.864 155.213 170.277 153.932 171.104C152.692 171.931 152.072 173.109 152.072 174.638C152.072 175.961 152.547 176.994 153.498 177.738C154.49 178.441 155.751 178.792 157.28 178.792ZM198.477 153.062C198.477 152.855 198.539 152.69 198.663 152.566C198.828 152.401 199.014 152.318 199.221 152.318H204.925C205.131 152.318 205.297 152.401 205.421 152.566C205.586 152.69 205.669 152.855 205.669 153.062V181.892C205.669 187.059 204.181 190.737 201.205 192.928C198.27 195.16 194.405 196.276 189.611 196.276C188.329 196.276 187.069 196.214 185.829 196.09C185.374 196.049 185.147 195.78 185.147 195.284L185.333 190.2C185.333 189.745 185.622 189.518 186.201 189.518C187.399 189.642 188.474 189.704 189.425 189.704C192.525 189.704 194.798 189.084 196.245 187.844C197.733 186.645 198.477 184.599 198.477 181.706V181.21C198.477 181.086 198.435 181.024 198.353 181.024C198.27 180.983 198.187 181.003 198.105 181.086C196.41 182.905 194.013 183.814 190.913 183.814C188.226 183.814 185.767 183.132 183.535 181.768C181.303 180.404 179.753 178.317 178.885 175.506C178.347 173.563 178.079 171.063 178.079 168.004C178.079 164.573 178.409 161.949 179.071 160.13C179.897 157.609 181.323 155.604 183.349 154.116C185.374 152.587 187.751 151.822 190.479 151.822C193.744 151.822 196.286 152.773 198.105 154.674C198.187 154.798 198.27 154.839 198.353 154.798C198.435 154.757 198.477 154.674 198.477 154.55V153.062ZM198.043 173.46C198.208 172.84 198.311 172.179 198.353 171.476C198.435 170.732 198.477 169.554 198.477 167.942C198.477 166.371 198.435 165.255 198.353 164.594C198.311 163.891 198.187 163.209 197.981 162.548C197.65 161.184 196.968 160.089 195.935 159.262C194.943 158.435 193.661 158.022 192.091 158.022C190.603 158.022 189.342 158.435 188.309 159.262C187.275 160.089 186.531 161.184 186.077 162.548C185.581 163.705 185.333 165.524 185.333 168.004C185.333 170.567 185.539 172.365 185.953 173.398C186.366 174.721 187.11 175.816 188.185 176.684C189.301 177.511 190.623 177.924 192.153 177.924C193.765 177.924 195.067 177.511 196.059 176.684C197.051 175.857 197.712 174.783 198.043 173.46ZM239.82 164.594C239.985 165.627 240.068 166.785 240.068 168.066L240.006 169.988C240.006 170.484 239.758 170.732 239.262 170.732H219.856C219.649 170.732 219.546 170.835 219.546 171.042C219.67 172.406 219.856 173.336 220.104 173.832C221.096 176.808 223.514 178.317 227.358 178.358C230.169 178.358 232.401 177.201 234.054 174.886C234.219 174.638 234.426 174.514 234.674 174.514C234.839 174.514 234.984 174.576 235.108 174.7L238.952 177.862C239.324 178.151 239.386 178.482 239.138 178.854C237.857 180.673 236.141 182.078 233.992 183.07C231.884 184.062 229.528 184.558 226.924 184.558C223.7 184.558 220.951 183.835 218.678 182.388C216.446 180.941 214.813 178.916 213.78 176.312C212.829 174.08 212.354 170.98 212.354 167.012C212.354 164.615 212.602 162.672 213.098 161.184C213.925 158.291 215.475 156.017 217.748 154.364C220.063 152.669 222.832 151.822 226.056 151.822C234.199 151.822 238.787 156.079 239.82 164.594ZM226.056 158.022C224.527 158.022 223.245 158.415 222.212 159.2C221.22 159.944 220.517 160.998 220.104 162.362C219.856 163.065 219.691 163.974 219.608 165.09C219.525 165.297 219.608 165.4 219.856 165.4H232.442C232.649 165.4 232.752 165.297 232.752 165.09C232.669 164.057 232.545 163.271 232.38 162.734C232.008 161.246 231.264 160.089 230.148 159.262C229.073 158.435 227.709 158.022 226.056 158.022Z" fill="white"/>
</svg>
