<svg width="73" height="26" viewBox="0 0 73 26" fill="none" xmlns="http://www.w3.org/2000/svg">
<g clip-path="url(#clip0_280_460)">
<path d="M35.4515 2.96372e-05C36.1891 -0.00291358 36.9109 0.213419 37.5258 0.621672C38.1406 1.02992 38.6209 1.61176 38.9059 2.2936C39.1908 2.97545 39.2677 3.72667 39.1267 4.45229C38.9857 5.1779 38.6332 5.84531 38.1137 6.37012C37.5943 6.89493 36.9313 7.25356 36.2085 7.40068C35.4857 7.54779 34.7356 7.47677 34.0531 7.1966C33.3706 6.91643 32.7862 6.4397 32.374 5.82668C31.9618 5.21367 31.7403 4.4919 31.7373 3.75266C31.7373 2.76254 32.1276 1.81254 32.8233 1.10964C33.5191 0.406734 34.4637 0.00789809 35.4515 2.96372e-05Z" fill="white"/>
<path d="M9.17397 25.7814H0V22.7991H0.67937C1.12567 22.7991 1.2794 22.5456 1.2794 22.1331V12.923C1.2794 12.5055 1.12567 12.257 0.67937 12.257H0V9.21511H8.27145V11.7947C9.45167 10.1297 10.9939 8.86719 13.4535 8.86719C16.7115 8.86719 17.8025 10.1744 18.1793 12.1079C18.7026 11.1295 19.4806 10.3116 20.4306 9.74095C21.3806 9.17033 22.4671 8.86838 23.5746 8.86719C27.7054 8.86719 28.2707 10.8553 28.2707 13.8077V22.143C28.2707 22.5556 28.4542 22.8091 28.9649 22.8091H29.4906V25.7913H20.4753V22.8091H20.7183C21.1348 22.8091 21.3183 22.5556 21.3183 22.143V14.5682C21.3183 13.2013 20.8522 12.764 19.9001 12.764C18.6405 12.764 18.2289 13.8077 18.2289 15.4181V22.1132C18.2289 22.5556 18.4174 22.8091 18.8339 22.8091H19.2058V25.7913H10.4385V22.8091H10.6914C11.0931 22.8091 11.2815 22.5556 11.2815 22.143V14.5682C11.2815 13.2013 10.8154 12.764 9.86326 12.764C8.60369 12.764 8.19707 13.8077 8.19707 15.4181V22.1132C8.19707 22.5556 8.35575 22.8091 8.79709 22.8091H9.17397V25.7814Z" fill="white"/>
<path d="M32.0344 12.9227C32.0344 12.5052 31.8807 12.2567 31.4344 12.2567H30.7451V9.21484H38.9521V22.1378C38.9521 22.5802 39.1108 22.8337 39.5521 22.8337H40.167V25.8159H30.7451V22.8337H31.4245C31.8708 22.8337 32.0245 22.5802 32.0245 22.1676L32.0344 12.9227Z" fill="white"/>
<path d="M50.7697 25.7814H41.5957V22.7992H42.2751C42.7164 22.7992 42.8751 22.5457 42.8751 22.1332V12.9231C42.8751 12.5055 42.7164 12.257 42.2751 12.257H41.5957V9.21516H49.7928V11.8246C50.3939 10.9119 51.2123 10.1637 52.1742 9.64734C53.136 9.13103 54.211 8.86293 55.3021 8.86724C59.1254 8.86724 59.9536 10.8554 59.9536 13.8078V22.1431C59.9536 22.5556 60.1073 22.8091 60.6131 22.8091H61.1685V25.7913H52.0292V22.8091H52.4061C52.8127 22.8091 53.0061 22.5556 53.0061 22.1431V14.5683C53.0061 13.2014 52.5103 12.764 51.5879 12.764C50.6655 12.764 49.7928 13.4897 49.7928 15.1001V22.1133C49.7802 22.2059 49.7888 22.3001 49.818 22.3889C49.8471 22.4777 49.896 22.5587 49.961 22.6257C50.026 22.6927 50.1053 22.7441 50.193 22.7759C50.2807 22.8076 50.3745 22.819 50.4672 22.8091H50.7697V25.7814Z" fill="white"/>
<path d="M60.9941 9.215L63.4339 9.12057L63.7265 5.35303H69.9202V9.215H72.841V12.3215H69.9202V19.8267C69.9202 21.7851 70.297 22.4213 72.4442 22.4213H72.9947V25.7812C71.6328 25.931 70.2637 26.0041 68.8937 25.9999C64.9811 25.9999 63.0025 24.7822 63.0025 21.5266V12.3215H61.0189L60.9941 9.215Z" fill="white"/>
</g>
<defs>
<clipPath id="clip0_280_460">
<rect width="73" height="26" fill="white"/>
</clipPath>
</defs>
</svg>
