<svg width="37" height="371" viewBox="0 0 37 371" fill="none" xmlns="http://www.w3.org/2000/svg">
<path fill-rule="evenodd" clip-rule="evenodd" d="M23.7466 5.49921C23.0129 3.97495 22.2818 2.44715 21.5885 0.912041L23.4112 0.0888672C24.0935 1.59949 24.8151 3.10777 25.5487 4.63174L23.7466 5.49921ZM30.7373 24.0697C30.1485 20.7837 29.1349 17.662 27.9086 14.6175L29.7638 13.8703C31.0235 16.9978 32.0858 20.256 32.706 23.717L30.7373 24.0697ZM28.7528 43.3608C30.0327 39.9799 30.7714 36.8191 31.0949 33.8343L33.0832 34.0499C32.7405 37.2118 31.96 40.5378 30.6233 44.0689L28.7528 43.3608ZM21.6777 56.4312C22.6691 54.9992 23.5702 53.6028 24.387 52.2399L26.1025 53.2681C25.2619 54.6705 24.3369 56.1037 23.3221 57.5697L21.6777 56.4312ZM5.01552 151.266C5.76985 149.442 6.61769 147.685 7.56286 146.009L9.30489 146.992C8.40211 148.592 7.58917 150.276 6.86364 152.03L5.01552 151.266ZM0.265137 173.903C0.458667 169.994 0.922123 166.129 1.67674 162.4L3.63702 162.797C2.90389 166.42 2.45169 170.184 2.26269 174.002L0.265137 173.903ZM2.1169 196.925C1.33023 193.203 0.770457 189.357 0.456396 185.475L2.44988 185.313C2.75716 189.112 3.30479 192.873 4.07368 196.511L2.1169 196.925ZM7.52892 213.426C6.72288 211.712 5.97742 209.92 5.29534 208.064L7.17249 207.374C7.83574 209.178 8.55902 210.916 9.33883 212.575L7.52892 213.426ZM24.6855 308.48C23.7721 307.348 22.8024 306.252 21.7809 305.195L23.2189 303.805C24.2807 304.904 25.2903 306.044 26.2425 307.225L24.6855 308.48ZM32.6698 323.898C31.8967 321.055 30.8227 318.347 29.4856 315.783L31.259 314.858C32.6603 317.546 33.7877 320.387 34.5998 323.373L32.6698 323.898ZM33.6029 341.241C34.0427 338.225 34.1765 335.314 34.0346 332.512L36.0321 332.411C36.1807 335.347 36.04 338.389 35.582 341.529L33.6029 341.241ZM28.3367 357.961C29.6666 355.17 30.7484 352.444 31.6 349.787L33.5045 350.398C32.6241 353.145 31.5085 355.954 30.1422 358.822L28.3367 357.961ZM21.674 369.437C22.529 368.185 23.3353 366.943 24.0944 365.713L25.7964 366.764C25.0207 368.021 24.1975 369.288 23.3257 370.564L21.674 369.437Z" fill="white"/>
</svg>
