<svg width="117" height="115" viewBox="0 0 117 115" fill="none" xmlns="http://www.w3.org/2000/svg">
<g style="mix-blend-mode:screen">
<path d="M94.8291 65.5938C89.4068 72.6001 73.6221 69.5802 59.6447 58.5875C45.6674 47.7157 38.7992 33.2199 44.2215 26.0928C49.6437 19.0865 65.4285 22.1064 79.4058 33.0991C93.3831 43.9709 100.372 58.5875 94.8291 65.5938Z" fill="url(#paint0_radial_6_1131)"/>
</g>
<g style="mix-blend-mode:screen">
<path d="M82.0566 55.5679C79.2852 59.1919 71.2121 57.6215 64.1029 52.0648C56.9938 46.508 53.4994 39.1393 56.2708 35.5154C59.0422 31.8914 67.1153 33.4618 74.2245 39.0185C81.3336 44.5753 84.828 51.944 82.0566 55.5679Z" fill="url(#paint1_radial_6_1131)"/>
</g>
<g style="mix-blend-mode:screen">
<path d="M56.6322 98.3295C77.5946 98.3295 94.588 81.2933 94.588 60.278C94.588 39.2628 77.5946 22.2266 56.6322 22.2266C35.6699 22.2266 18.6765 39.2628 18.6765 60.278C18.6765 81.2933 35.6699 98.3295 56.6322 98.3295Z" fill="url(#paint2_radial_6_1131)"/>
</g>
<g style="mix-blend-mode:screen">
<path d="M56.6322 98.3295C77.5946 98.3295 94.588 81.2933 94.588 60.278C94.588 39.2628 77.5946 22.2266 56.6322 22.2266C35.6699 22.2266 18.6765 39.2628 18.6765 60.278C18.6765 81.2933 35.6699 98.3295 56.6322 98.3295Z" fill="url(#paint3_radial_6_1131)"/>
</g>
<g style="mix-blend-mode:screen">
<path d="M56.6322 98.3295C77.5946 98.3295 94.588 81.2933 94.588 60.278C94.588 39.2628 77.5946 22.2266 56.6322 22.2266C35.6699 22.2266 18.6765 39.2628 18.6765 60.278C18.6765 81.2933 35.6699 98.3295 56.6322 98.3295Z" fill="url(#paint4_radial_6_1131)"/>
</g>
<g style="mix-blend-mode:screen">
<path d="M81.6952 40.5886C81.6952 50.1317 70.4893 57.8628 56.6324 57.8628C42.7756 57.8628 31.5696 50.1317 31.5696 40.5886C31.5696 31.0455 42.7756 23.3145 56.6324 23.3145C70.4893 23.3145 81.6952 31.0455 81.6952 40.5886Z" fill="url(#paint5_linear_6_1131)"/>
</g>
<g style="mix-blend-mode:screen">
<path d="M81.6952 40.5886C81.6952 50.1317 70.4893 57.8628 56.6324 57.8628C42.7756 57.8628 31.5696 50.1317 31.5696 40.5886C31.5696 31.0455 42.7756 23.3145 56.6324 23.3145C70.4893 23.3145 81.6952 31.0455 81.6952 40.5886Z" fill="url(#paint6_linear_6_1131)"/>
</g>
<g style="mix-blend-mode:screen">
<path d="M31.208 77.7947C31.208 68.2516 42.414 60.5205 56.2708 60.5205C70.1277 60.5205 81.3337 68.2516 81.3337 77.7947C81.3337 87.3377 70.1277 95.0688 56.2708 95.0688C42.414 95.0688 31.208 87.3377 31.208 77.7947Z" fill="url(#paint7_linear_6_1131)"/>
</g>
<g style="mix-blend-mode:screen">
<path d="M104.83 30.0789C104.83 41.7963 87.3584 51.3394 65.9104 51.3394C44.4624 51.3394 26.9907 41.7963 26.9907 30.0789C26.9907 18.3614 44.4624 8.81836 65.9104 8.81836C87.3584 8.93916 104.83 18.3614 104.83 30.0789Z" fill="url(#paint8_radial_6_1131)"/>
</g>
<g style="mix-blend-mode:screen">
<path d="M77.2369 8.09356C83.8641 19.4486 72.4171 38.6555 51.5716 50.8562C30.8465 63.0568 8.5551 63.7816 1.92791 52.4265C-4.81977 41.0715 6.74768 21.9854 27.5932 9.66394C48.3182 -2.53669 70.6097 -3.26148 77.2369 8.09356Z" fill="url(#paint9_radial_6_1131)"/>
</g>
<g style="mix-blend-mode:screen">
<path d="M97.1185 34.5485C98.203 53.2722 79.4059 69.58 55.307 70.9088C31.2081 72.1168 10.8446 58.1041 9.88063 39.3804C8.79618 20.6567 27.4728 4.3489 51.5717 3.02012C75.6705 1.69134 96.1546 15.8247 97.1185 34.5485Z" fill="url(#paint10_radial_6_1131)"/>
</g>
<g style="mix-blend-mode:screen">
<path d="M115.072 62.574C121.699 73.9291 110.252 93.136 89.4069 105.337C68.6819 117.537 46.3904 118.262 39.6428 106.907C33.0156 95.552 44.4625 76.345 65.308 64.1444C86.1536 51.9438 108.445 51.219 115.072 62.574Z" fill="url(#paint11_radial_6_1131)"/>
</g>
<g style="mix-blend-mode:screen">
<path d="M85.069 36.6017C85.069 39.2592 82.9001 41.3128 80.3697 41.3128C77.7188 41.3128 75.6704 39.1384 75.6704 36.6017C75.6704 33.9441 77.8393 31.8905 80.3697 31.8905C82.9001 31.7697 85.069 33.9441 85.069 36.6017Z" fill="url(#paint12_radial_6_1131)"/>
</g>
<g style="mix-blend-mode:screen">
<path d="M50.005 29.4749C50.005 32.978 47.2337 35.7564 43.7393 35.7564C40.245 35.7564 37.4736 32.978 37.4736 29.4749C37.4736 25.9717 40.245 23.1934 43.7393 23.1934C47.2337 23.1934 50.005 25.9717 50.005 29.4749Z" fill="url(#paint13_radial_6_1131)"/>
</g>
<g style="mix-blend-mode:screen">
<path d="M86.3943 40.3462C86.3943 41.9166 85.0689 43.2454 83.5025 43.2454C81.936 43.2454 80.6106 41.9166 80.6106 40.3462C80.6106 38.7759 81.936 37.4471 83.5025 37.4471C85.0689 37.3263 86.3943 38.6551 86.3943 40.3462Z" fill="url(#paint14_radial_6_1131)"/>
</g>
<defs>
<radialGradient id="paint0_radial_6_1131" cx="0" cy="0" r="1" gradientUnits="userSpaceOnUse" gradientTransform="translate(69.5644 45.8913) rotate(37.9092) scale(32.0619 16.1245)">
<stop stop-color="#A26600"/>
<stop offset="0.0339711" stop-color="#925C00"/>
<stop offset="0.1305" stop-color="#6C4400"/>
<stop offset="0.2341" stop-color="#4A2F00"/>
<stop offset="0.3444" stop-color="#2F1E00"/>
<stop offset="0.4639" stop-color="#1A1000"/>
<stop offset="0.5971" stop-color="#0B0700"/>
<stop offset="0.7549" stop-color="#030200"/>
<stop offset="1"/>
</radialGradient>
<radialGradient id="paint1_radial_6_1131" cx="0" cy="0" r="1" gradientUnits="userSpaceOnUse" gradientTransform="translate(69.1192 45.5377) rotate(37.9092) scale(16.3763 8.23593)">
<stop stop-color="#A26600"/>
<stop offset="0.0339711" stop-color="#925C00"/>
<stop offset="0.1305" stop-color="#6C4400"/>
<stop offset="0.2341" stop-color="#4A2F00"/>
<stop offset="0.3444" stop-color="#2F1E00"/>
<stop offset="0.4639" stop-color="#1A1000"/>
<stop offset="0.5971" stop-color="#0B0700"/>
<stop offset="0.7549" stop-color="#030200"/>
<stop offset="1"/>
</radialGradient>
<radialGradient id="paint2_radial_6_1131" cx="0" cy="0" r="1" gradientUnits="userSpaceOnUse" gradientTransform="translate(56.583 60.269) scale(37.9939 38.0898)">
<stop offset="0.6882"/>
<stop offset="0.8044" stop-color="#020202"/>
<stop offset="0.8462" stop-color="#090909"/>
<stop offset="0.8761" stop-color="#141414"/>
<stop offset="0.9002" stop-color="#252525"/>
<stop offset="0.9209" stop-color="#3B3B3B"/>
<stop offset="0.9392" stop-color="#575757"/>
<stop offset="0.9558" stop-color="#777777"/>
<stop offset="0.971" stop-color="#9D9D9D"/>
<stop offset="0.9851" stop-color="#C8C8C8"/>
<stop offset="0.9977" stop-color="#F6F6F6"/>
<stop offset="1" stop-color="white"/>
</radialGradient>
<radialGradient id="paint3_radial_6_1131" cx="0" cy="0" r="1" gradientUnits="userSpaceOnUse" gradientTransform="translate(51.4883 37.9735) scale(58.675 58.823)">
<stop offset="0.6882"/>
<stop offset="0.8044" stop-color="#000202"/>
<stop offset="0.8462" stop-color="#020709"/>
<stop offset="0.8761" stop-color="#051114"/>
<stop offset="0.9002" stop-color="#0A1F25"/>
<stop offset="0.9209" stop-color="#0F313B"/>
<stop offset="0.9392" stop-color="#164857"/>
<stop offset="0.9558" stop-color="#1F6377"/>
<stop offset="0.971" stop-color="#29829D"/>
<stop offset="0.9851" stop-color="#34A6C8"/>
<stop offset="0.9977" stop-color="#40CCF6"/>
<stop offset="1" stop-color="#42D4FF"/>
</radialGradient>
<radialGradient id="paint4_radial_6_1131" cx="0" cy="0" r="1" gradientUnits="userSpaceOnUse" gradientTransform="translate(68.3354 39.7206) scale(58.6748 58.8229)">
<stop offset="0.6882"/>
<stop offset="0.8044" stop-color="#020001"/>
<stop offset="0.8462" stop-color="#090002"/>
<stop offset="0.8761" stop-color="#140006"/>
<stop offset="0.9002" stop-color="#25000B"/>
<stop offset="0.9209" stop-color="#3B0011"/>
<stop offset="0.9392" stop-color="#570019"/>
<stop offset="0.9558" stop-color="#770022"/>
<stop offset="0.971" stop-color="#9D002D"/>
<stop offset="0.9851" stop-color="#C80039"/>
<stop offset="0.9977" stop-color="#F60046"/>
<stop offset="1" stop-color="#FF0049"/>
</radialGradient>
<linearGradient id="paint5_linear_6_1131" x1="53.3225" y1="79.4742" x2="58.3228" y2="20.074" gradientUnits="userSpaceOnUse">
<stop/>
<stop offset="0.3726" stop-color="#020202"/>
<stop offset="0.5069" stop-color="#090909"/>
<stop offset="0.6026" stop-color="#141414"/>
<stop offset="0.68" stop-color="#252525"/>
<stop offset="0.7463" stop-color="#3B3B3B"/>
<stop offset="0.805" stop-color="#575757"/>
<stop offset="0.8581" stop-color="#777777"/>
<stop offset="0.9069" stop-color="#9D9D9D"/>
<stop offset="0.9523" stop-color="#C8C8C8"/>
<stop offset="0.9926" stop-color="#F6F6F6"/>
<stop offset="1" stop-color="white"/>
</linearGradient>
<linearGradient id="paint6_linear_6_1131" x1="56.5831" y1="68.6959" x2="56.5831" y2="16.763" gradientUnits="userSpaceOnUse">
<stop/>
<stop offset="0.3726" stop-color="#020202"/>
<stop offset="0.5069" stop-color="#090909"/>
<stop offset="0.6026" stop-color="#141414"/>
<stop offset="0.68" stop-color="#252525"/>
<stop offset="0.7463" stop-color="#3B3B3B"/>
<stop offset="0.805" stop-color="#575757"/>
<stop offset="0.8581" stop-color="#777777"/>
<stop offset="0.9069" stop-color="#9D9D9D"/>
<stop offset="0.9523" stop-color="#C8C8C8"/>
<stop offset="0.9926" stop-color="#F6F6F6"/>
<stop offset="1" stop-color="white"/>
</linearGradient>
<linearGradient id="paint7_linear_6_1131" x1="52.4273" y1="53.8063" x2="59.7729" y2="99.7671" gradientUnits="userSpaceOnUse">
<stop/>
<stop offset="0.3726" stop-color="#020101"/>
<stop offset="0.5069" stop-color="#090205"/>
<stop offset="0.6026" stop-color="#14060D"/>
<stop offset="0.68" stop-color="#250B17"/>
<stop offset="0.7463" stop-color="#3B1125"/>
<stop offset="0.805" stop-color="#571935"/>
<stop offset="0.8581" stop-color="#772249"/>
<stop offset="0.9069" stop-color="#9D2D61"/>
<stop offset="0.9523" stop-color="#C8397B"/>
<stop offset="0.9926" stop-color="#F64697"/>
<stop offset="1" stop-color="#FF499D"/>
</linearGradient>
<radialGradient id="paint8_radial_6_1131" cx="0" cy="0" r="1" gradientUnits="userSpaceOnUse" gradientTransform="translate(65.8556 30.1137) scale(38.9144 21.2352)">
<stop stop-color="#FF4952"/>
<stop offset="0.0792956" stop-color="#CD3B42"/>
<stop offset="0.1675" stop-color="#9E2D33"/>
<stop offset="0.2611" stop-color="#732125"/>
<stop offset="0.3582" stop-color="#50171A"/>
<stop offset="0.46" stop-color="#330E10"/>
<stop offset="0.568" stop-color="#1C0809"/>
<stop offset="0.685" stop-color="#0C0404"/>
<stop offset="0.8178" stop-color="#030101"/>
<stop offset="1"/>
</radialGradient>
<radialGradient id="paint9_radial_6_1131" cx="0" cy="0" r="1" gradientUnits="userSpaceOnUse" gradientTransform="translate(39.5902 30.2665) rotate(-30.4945) scale(43.7507 23.8427)">
<stop stop-color="#00A4FF"/>
<stop offset="0.0792956" stop-color="#0084CD"/>
<stop offset="0.1675" stop-color="#00659E"/>
<stop offset="0.2611" stop-color="#004A73"/>
<stop offset="0.3582" stop-color="#003350"/>
<stop offset="0.46" stop-color="#002133"/>
<stop offset="0.568" stop-color="#00121C"/>
<stop offset="0.685" stop-color="#00080C"/>
<stop offset="0.8178" stop-color="#000203"/>
<stop offset="1"/>
</radialGradient>
<radialGradient id="paint10_radial_6_1131" cx="0" cy="0" r="1" gradientUnits="userSpaceOnUse" gradientTransform="translate(53.486 36.9191) rotate(-3.18185) scale(43.7235 33.9583)">
<stop stop-color="#BB00D1"/>
<stop offset="0.00693053" stop-color="#B800CD"/>
<stop offset="0.1022" stop-color="#8D009E"/>
<stop offset="0.203" stop-color="#670073"/>
<stop offset="0.3077" stop-color="#470050"/>
<stop offset="0.4175" stop-color="#2D0033"/>
<stop offset="0.534" stop-color="#19001C"/>
<stop offset="0.6602" stop-color="#0B000C"/>
<stop offset="0.8034" stop-color="#030003"/>
<stop offset="1"/>
</radialGradient>
<radialGradient id="paint11_radial_6_1131" cx="0" cy="0" r="1" gradientUnits="userSpaceOnUse" gradientTransform="translate(77.3897 84.7547) rotate(-30.4945) scale(43.7509 23.8428)">
<stop stop-color="#00A4FF"/>
<stop offset="0.0792956" stop-color="#0084CD"/>
<stop offset="0.1675" stop-color="#00659E"/>
<stop offset="0.2611" stop-color="#004A73"/>
<stop offset="0.3582" stop-color="#003350"/>
<stop offset="0.46" stop-color="#002133"/>
<stop offset="0.568" stop-color="#00121C"/>
<stop offset="0.685" stop-color="#00080C"/>
<stop offset="0.8178" stop-color="#000203"/>
<stop offset="1"/>
</radialGradient>
<radialGradient id="paint12_radial_6_1131" cx="0" cy="0" r="1" gradientUnits="userSpaceOnUse" gradientTransform="translate(80.3287 36.5761) scale(4.74916 4.76115)">
<stop offset="0.1592" stop-color="white"/>
<stop offset="0.1654" stop-color="#F6F6F6"/>
<stop offset="0.1993" stop-color="#C8C8C8"/>
<stop offset="0.2375" stop-color="#9D9D9D"/>
<stop offset="0.2785" stop-color="#777777"/>
<stop offset="0.3232" stop-color="#575757"/>
<stop offset="0.3725" stop-color="#3B3B3B"/>
<stop offset="0.4283" stop-color="#252525"/>
<stop offset="0.4934" stop-color="#141414"/>
<stop offset="0.5738" stop-color="#090909"/>
<stop offset="0.6867" stop-color="#020202"/>
<stop offset="1"/>
</radialGradient>
<radialGradient id="paint13_radial_6_1131" cx="0" cy="0" r="1" gradientUnits="userSpaceOnUse" gradientTransform="translate(43.7392 29.4565) scale(6.29522 6.31111)">
<stop offset="0.1592" stop-color="white"/>
<stop offset="0.1654" stop-color="#F6F6F6"/>
<stop offset="0.1993" stop-color="#C8C8C8"/>
<stop offset="0.2375" stop-color="#9D9D9D"/>
<stop offset="0.2785" stop-color="#777777"/>
<stop offset="0.3232" stop-color="#575757"/>
<stop offset="0.3725" stop-color="#3B3B3B"/>
<stop offset="0.4283" stop-color="#252525"/>
<stop offset="0.4934" stop-color="#141414"/>
<stop offset="0.5738" stop-color="#090909"/>
<stop offset="0.6867" stop-color="#020202"/>
<stop offset="1"/>
</radialGradient>
<radialGradient id="paint14_radial_6_1131" cx="0" cy="0" r="1" gradientUnits="userSpaceOnUse" gradientTransform="translate(83.494 40.3164) scale(2.94006 2.94748)">
<stop offset="0.1592" stop-color="white"/>
<stop offset="0.1654" stop-color="#F6F6F6"/>
<stop offset="0.1993" stop-color="#C8C8C8"/>
<stop offset="0.2375" stop-color="#9D9D9D"/>
<stop offset="0.2785" stop-color="#777777"/>
<stop offset="0.3232" stop-color="#575757"/>
<stop offset="0.3725" stop-color="#3B3B3B"/>
<stop offset="0.4283" stop-color="#252525"/>
<stop offset="0.4934" stop-color="#141414"/>
<stop offset="0.5738" stop-color="#090909"/>
<stop offset="0.6867" stop-color="#020202"/>
<stop offset="1"/>
</radialGradient>
</defs>
</svg>
