<svg width="38" height="27" viewBox="0 0 38 27" fill="none" xmlns="http://www.w3.org/2000/svg">
<path d="M28.0445 27C28.0445 27 26.8733 25.6179 25.8973 24.3964C30.1592 23.2072 31.7859 20.5714 31.7859 20.5714C30.4521 21.4394 29.1832 22.0501 28.0445 22.4679C26.4179 23.1429 24.8562 23.5929 23.3271 23.85C20.2038 24.4287 17.3408 24.2679 14.9007 23.8179C13.0462 23.4644 11.4521 22.95 10.1182 22.4358C9.36986 22.1465 8.5565 21.7929 7.74315 21.343C7.64555 21.2786 7.54794 21.2464 7.45035 21.1822C7.38527 21.15 7.35274 21.1179 7.32021 21.0858C6.73459 20.7643 6.40924 20.5393 6.40924 20.5393C6.40924 20.5393 7.97089 23.1108 12.1027 24.3321C11.1267 25.5536 9.92294 27 9.92294 27C2.73288 26.775 0 22.1144 0 22.1144C0 11.7644 4.68492 3.37523 4.68492 3.37523C9.36986 -0.0961604 13.8271 0.000267112 13.8271 0.000267112L14.1524 0.385977C8.29623 2.05739 5.59589 4.59666 5.59589 4.59666C5.59589 4.59666 6.31164 4.21093 7.51541 3.66452C10.9966 2.15382 13.762 1.73597 14.9007 1.63953C15.0959 1.60739 15.2586 1.57525 15.4538 1.57525C17.4383 1.31811 19.6832 1.25383 22.0257 1.51096C25.1164 1.86454 28.435 2.76453 31.8185 4.59666C31.8185 4.59666 29.2483 2.18596 23.7174 0.514547L24.1729 0.000267112C24.1729 0.000267112 28.6301 -0.0961604 33.315 3.37523C33.315 3.37523 38 11.7644 38 22.1144C38 22.1144 35.2346 26.775 28.0445 27ZM12.9161 11.9894C11.0616 11.9894 9.59761 13.5965 9.59761 15.5573C9.59761 17.518 11.0942 19.125 12.9161 19.125C14.7706 19.125 16.2346 17.518 16.2346 15.5573C16.2671 13.5965 14.7706 11.9894 12.9161 11.9894ZM24.7911 11.9894C22.9367 11.9894 21.4726 13.5965 21.4726 15.5573C21.4726 17.518 22.9692 19.125 24.7911 19.125C26.6456 19.125 28.1095 17.518 28.1095 15.5573C28.1095 13.5965 26.6456 11.9894 24.7911 11.9894Z" fill="white"/>
</svg>
