<svg width="28" height="24" viewBox="0 0 28 24" fill="none" xmlns="http://www.w3.org/2000/svg">
<path d="M8.80852 23.3749C19.372 23.3749 25.1513 14.621 25.1513 7.03205C25.1513 6.78595 25.1459 6.53439 25.1349 6.2883C26.2592 5.47525 27.2294 4.46817 28 3.31439C26.9529 3.78024 25.8412 4.08449 24.7029 4.21674C25.9015 3.49827 26.799 2.3696 27.2289 1.03994C26.1013 1.70819 24.8682 2.17959 23.5823 2.43392C22.716 1.51337 21.5705 0.903847 20.323 0.699604C19.0754 0.495361 17.7954 0.70777 16.6807 1.30399C15.566 1.90021 14.6788 2.84703 14.1562 3.99807C13.6335 5.14912 13.5047 6.44026 13.7895 7.67189C11.5062 7.55732 9.27259 6.9642 7.23331 5.93099C5.19403 4.89779 3.39464 3.44755 1.9518 1.67431C1.21847 2.93866 0.994066 4.4348 1.3242 5.85865C1.65434 7.2825 2.51424 8.52723 3.72914 9.33986C2.81707 9.3109 1.92497 9.06534 1.12656 8.62345V8.69455C1.12575 10.0214 1.58445 11.3076 2.42469 12.3344C3.26494 13.3613 4.43488 14.0655 5.73562 14.3274C4.89073 14.5585 4.00398 14.5922 3.14398 14.4258C3.51103 15.5669 4.22517 16.5649 5.18673 17.2806C6.1483 17.9963 7.30931 18.3939 8.50773 18.418C6.47316 20.0162 3.95987 20.883 1.37266 20.8789C0.913835 20.8782 0.455466 20.8501 0 20.7947C2.62833 22.4809 5.68579 23.3765 8.80852 23.3749Z" fill="white"/>
</svg>
